Coordinates
version=1
nRows=13
nColumns=40
inDegrees=yes

Units are S.I. units (second, meters, Newtons, ...)
If the header above contains a line with 'inDegrees', this indicates whether rotational values are in degrees (yes) or radians (no).

endheader
time	pelvis_tilt	pelvis_list	pelvis_rotation	pelvis_tx	pelvis_ty	pelvis_tz	hip_flexion_r	hip_adduction_r	hip_rotation_r	knee_angle_r	knee_angle_r_beta	ankle_angle_r	subtalar_angle_r	mtp_angle_r	hip_flexion_l	hip_adduction_l	hip_rotation_l	knee_angle_l	knee_angle_l_beta	ankle_angle_l	subtalar_angle_l	mtp_angle_l	lumbar_extension	lumbar_bending	lumbar_rotation	arm_flex_r	arm_add_r	arm_rot_r	elbow_flex_r	pro_sup_r	wrist_flex_r	wrist_dev_r	arm_flex_l	arm_add_l	arm_rot_l	elbow_flex_l	pro_sup_l	wrist_flex_l	wrist_dev_l
      8.04166667	    -11.48970794	     11.58853204	      2.01359503	     -0.25892303	      1.03623344	      0.25187348	     51.18501923	    -20.27205763	      4.27314032	     63.86485650	      1.11465202	     -4.13038322	    -24.09287695	      0.00000000	     93.12213956	     -2.60013314	     -9.65092418	    109.66810086	      1.91406944	     25.64767349	    -12.88906647	      0.00000000	    -37.95660103	    -11.40216971	    -11.59826709	     88.74961839	     -1.86145397	     88.55534180	      4.51045639	     82.83452819	      0.00000000	      0.00000000	     89.71143006	     -7.26924768	     60.81443791	     18.51462751	     87.19395982	      0.00000000	      0.00000000
      8.05000000	    -11.34040407	     11.67869420	      1.99027777	     -0.25873790	      1.03630595	      0.25186111	     51.81459099	    -20.36965588	      4.83560387	     66.12816635	      1.15415423	     -3.63410299	    -24.01041188	      0.00000000	     92.28118726	     -2.34484417	     -9.86613287	    107.94828182	      1.88405294	     25.57608819	    -13.06474491	      0.00000000	    -38.08459797	    -11.44289858	    -11.64555240	     88.74469911	     -1.83630954	     88.57143468	      4.47580740	     82.82711738	      0.00000000	      0.00000000	     89.70832877	     -7.28471514	     60.88731657	     18.51138206	     87.22252839	      0.00000000	      0.00000000
      8.05833333	    -11.10876438	     12.13444805	      1.98823800	     -0.25823270	      1.03644896	      0.25165545	     52.55762627	    -20.78158382	      5.71977155	     68.53020477	      1.19607771	     -3.15271218	    -23.98102631	      0.00000000	     91.21206153	     -2.03120018	    -10.56055143	    106.04423706	      1.85082109	     25.64694635	    -13.32953412	      0.00000000	    -38.33394191	    -11.78321979	    -11.93091885	     88.70179939	     -1.84632569	     88.55277381	      4.53159110	     82.68503367	      0.00000000	      0.00000000	     89.71532053	     -7.29356761	     61.18183321	     18.40619040	     87.19022546	      0.00000000	      0.00000000
      8.06666667	    -10.88040257	     12.06727982	      2.01549835	     -0.25798537	      1.03670598	      0.25166012	     53.02747658	    -20.76185259	      6.14457488	     70.72093615	      1.23431319	     -2.66849654	    -24.00052570	      0.00000000	     90.14934761	     -1.74690002	    -10.62836706	    104.16978265	      1.81810569	     25.53571258	    -13.15900289	      0.00000000	    -38.54303016	    -11.62868021	    -11.91602123	     88.74889150	     -1.84815630	     88.54664386	      4.54289328	     83.17766113	      0.00000000	      0.00000000	     89.70379794	     -7.28784674	     61.01239800	     18.37747782	     87.18131723	      0.00000000	      0.00000000
      8.07500000	    -10.84858035	     12.66183845	      1.83374336	     -0.25762780	      1.03651250	      0.25161877	     54.18892971	    -21.13226993	      7.29973080	     73.11733084	      1.27613816	     -2.10524986	    -23.67283038	      0.00000000	     89.06483476	     -1.53849625	    -11.40359085	    102.17452080	      1.78328180	     25.42221972	    -13.42841509	      0.00000000	    -38.57109335	    -12.23118168	    -12.11635376	     88.65386833	     -1.83518254	     88.55731256	      4.55769325	     82.67875140	      0.00000000	      0.00000000	     89.71357848	     -7.29170190	     61.60698874	     18.22855478	     87.10248879	      0.00000000	      0.00000000
      8.08333333	    -10.63756224	     12.60088236	      1.71838292	     -0.25723725	      1.03656347	      0.25178280	     54.83688373	    -21.01999474	      7.80825068	     75.38025754	      1.31563369	     -1.58682503	    -23.36354968	      0.00000000	     87.91162593	     -1.33888020	    -11.40923197	    100.29235879	      1.75043188	     25.35491011	    -13.50656965	      0.00000000	    -38.70764556	    -12.16032405	    -11.98103888	     88.66175439	     -1.81706232	     88.58633351	      4.54759507	     82.84121136	      0.00000000	      0.00000000	     89.70411395	     -7.27130010	     61.81644819	     18.08133659	     87.03595275	      0.00000000	      0.00000000
      8.09166667	    -10.45139379	     13.23291564	      1.71891365	     -0.25673614	      1.03681577	      0.25141777	     55.80070636	    -21.59659729	      8.88956155	     77.73325412	      1.35670122	     -0.94343693	    -22.55083268	      0.00000000	     86.58418616	     -0.81343402	    -12.14723673	     98.16282840	      1.71326456	     25.29244706	    -14.16566600	      0.00000000	    -38.95846894	    -12.63167128	    -12.39743768	     88.62346792	     -1.77915838	     88.57132770	      4.58004450	     82.72100983	      0.00000000	      0.00000000	     89.70531341	     -7.33280354	     62.03425113	     18.05045902	     86.99067376	      0.00000000	      0.00000000
      8.10000000	    -10.32756044	     13.55285086	      1.65677830	     -0.25623566	      1.03682130	      0.25119207	     56.77352881	    -21.85222579	      9.75382307	     80.07203829	      1.39752071	     -0.30409116	    -22.00369778	      0.00000000	     85.31763011	     -0.30786300	    -12.44279522	     95.99949096	      1.67550720	     24.55998850	    -14.27596099	      0.00000000	    -39.05601302	    -12.86086540	    -12.53215259	     88.58004346	     -1.75234667	     88.58848636	      4.57921133	     82.61017624	      0.00000000	      0.00000000	     89.70659296	     -7.32363389	     62.71440524	     17.81622123	     86.86211471	      0.00000000	      0.00000000
      8.10833333	     -9.97755126	     14.46976677	      1.52980109	     -0.25566032	      1.03708606	      0.25162735	     57.80925378	    -22.55174507	     11.10652925	     82.50357536	      1.43995903	      0.50027679	    -21.17439101	      0.00000000	     83.66649642	      0.09661872	    -13.47451576	     93.72871046	      1.63587460	     24.10068958	    -14.32216565	      0.00000000	    -39.54489138	    -14.01638345	    -12.81422862	     88.38915446	     -2.23282709	     88.60937814	      4.65799925	     82.27302946	      0.00000000	      0.00000000	     89.74106925	     -6.75951708	     62.25271911	     17.69000312	     86.98526142	      0.00000000	      0.00000000
      8.11666667	     -9.74358789	     15.01803083	      1.38959689	     -0.25499430	      1.03733906	      0.25160392	     58.79942942	    -22.85850011	     12.30598171	     84.82339697	      1.48044756	      1.26967648	    -20.46721887	      0.00000000	     82.09516126	      0.48128315	    -14.16322246	     91.49387427	      1.59686935	     23.83885097	    -14.60160516	      0.00000000	    -39.80526410	    -14.54066515	    -13.02494963	     88.33301255	     -2.29238642	     88.59532065	      4.66772067	     82.50533132	      0.00000000	      0.00000000	     89.74698827	     -6.66590220	     62.66378839	     17.50830909	     86.82916284	      0.00000000	      0.00000000
      8.12500000	     -9.46434680	     15.28278906	      1.20262393	     -0.25434899	      1.03766820	      0.25147523	     59.63784310	    -22.92733368	     13.24863461	     87.05100029	      1.51932657	      1.95596883	    -19.93178666	      0.00000000	     80.51534675	      0.89378799	    -14.43589605	     89.30348627	      1.55863987	     23.48112790	    -14.96451702	      0.00000000	    -40.03888726	    -14.68400943	    -13.15456728	     88.36275905	     -2.12540616	     88.60028722	      4.65151200	     82.67053614	      0.00000000	      0.00000000	     89.73520144	     -6.84958807	     63.07497608	     17.42244681	     86.77874198	      0.00000000	      0.00000000
      8.13333333	     -9.31406175	     15.57935192	      1.14286115	     -0.25386779	      1.03799745	      0.25141785	     60.49145977	    -22.99095848	     14.31090107	     89.32198195	      1.55896268	      3.10298589	    -19.15788120	      0.00000000	     79.07363914	      1.28150548	    -14.84381861	     87.09957766	      1.52017441	     22.86639176	    -15.12726248	      0.00000000	    -40.19941910	    -14.88302747	    -13.29321607	     88.33701825	     -2.10656073	     88.61154542	      4.67355878	     82.55669668	      0.00000000	      0.00000000	     89.73488116	     -6.86701500	     63.50516965	     17.29466909	     86.66263237	      0.00000000	      0.00000000
      8.14166667	     -9.08133450	     15.81792904	      0.90771707	     -0.25306445	      1.03840035	      0.25158213	     61.37770585	    -22.90856694	     15.29892331	     91.49713732	      1.59692630	      3.88210842	    -18.59770565	      0.00000000	     77.44654548	      1.64963722	    -15.07767078	     84.83339919	      1.48062213	     22.32668730	    -15.28266885	      0.00000000	    -40.39860181	    -15.13285222	    -13.26024631	     88.30509445	     -2.14023445	     88.59999642	      4.73285665	     82.64375960	      0.00000000	      0.00000000	     89.73918375	     -6.83851142	     64.16191903	     17.09586716	     86.42940057	      0.00000000	      0.00000000
